<svg width="512" height="512" viewBox="0 0 512 512" fill="none" xmlns="http://www.w3.org/2000/svg">
<path d="M472.97 125.079C472.97 125.079 471.149 183.198 473.096 207.089C475.043 230.98 483.422 246.039 483.422 246.039C484.275 260.69 476.447 274.419 476.447 274.419C476.447 274.419 377.556 449.636 357.147 473.025C351.723 479.214 343.356 484.922 334.357 485.276C317.508 485.907 279.406 474.197 258.525 467.663C183.332 444.196 106.114 414.503 76.356 403.298C61.2748 397.642 46.319 384.955 40.9363 377.46C16.4704 343.617 33.5708 323.411 33.5708 323.411L472.97 125.079Z" fill="white"/>
<path d="M328.652 498.76C309.97 497.454 281.647 489.298 253.417 480.481C179.21 457.319 101.361 427.464 70.3067 415.815C52.3694 409.093 34.8802 394.656 27.5739 384.549C-0.567954 345.651 17.8688 320.739 18.6381 318.905C19.2971 317.221 20.338 315.672 21.7015 314.347C23.0651 313.022 24.7245 311.946 26.585 311.182C28.4455 310.417 30.4708 309.978 32.545 309.891C34.6193 309.803 36.7021 310.068 38.6743 310.671C40.6465 311.274 42.4697 312.202 44.0396 313.404C45.6096 314.605 46.8956 316.056 47.8242 317.673C48.7529 319.29 49.306 321.041 49.4519 322.828C49.5979 324.615 49.3339 326.401 48.6749 328.085C48.4006 328.735 34.5066 343.03 54.3789 370.534C58.4267 376.166 71.1098 386.649 82.4884 390.906C113.184 402.452 190.14 431.968 263.674 454.927C273.347 457.925 296.792 465.25 314.84 469.165C322.466 470.819 329.128 471.864 333.382 471.718C334.46 471.676 335.927 471.209 337.56 470.342C339.751 469.178 342.241 467.294 344.492 464.747C358.828 448.326 415.501 350.389 462.224 268.272C462.275 268.197 467.468 258.767 467.664 248.752C464.837 242.694 458.953 227.967 457.338 207.835C455.328 183.547 457.093 126.879 457.214 124.488C457.269 122.702 457.733 120.951 458.579 119.334C459.426 117.717 460.638 116.265 462.146 115.063C463.655 113.861 465.43 112.932 467.371 112.328C469.312 111.724 471.381 111.458 473.458 111.544C482.334 111.654 489.104 118.302 488.854 125.796C488.859 126.386 487.107 183.527 488.934 206.505C490.607 227.113 497.691 240.39 497.729 240.511C498.622 242.146 499.182 243.955 499.287 245.732C500.345 263.347 491.741 278.989 490.75 280.728C478.74 301.874 390.631 457.787 369.926 481.47C360.617 492.146 348.039 498.503 335.458 499C333.353 498.971 331.067 498.929 328.652 498.76Z" fill="#2F2F2F"/>
<path d="M333.768 494.359C330.35 494.12 327.168 492.482 325.253 489.752C320.795 483.192 317.393 476.253 314.84 469.165C299.253 425.879 321.576 399.518 322.371 397.14C323.155 394.839 324.974 392.919 327.43 391.801C329.886 390.682 332.778 390.457 335.472 391.174C341.091 392.668 344.309 397.73 342.691 402.533C342.484 403.095 319.643 431.268 337.56 470.342C339.217 473.957 341.17 477.472 343.459 480.839C346.404 485.214 344.734 490.76 339.755 493.204C337.859 494.134 335.773 494.499 333.768 494.359Z" fill="#2F2F2F"/>
<path d="M452.603 87.6288C427.159 77.5905 352.602 35.9882 282.976 20.6579L279.278 19.8486C268.503 17.4433 255.069 14.4195 240.169 13.3776C229.324 12.6192 219.499 12.9941 210.184 14.5845C199.019 16.4388 183.79 20.762 174.752 30.8276C118.417 93.2367 24.3229 308.33 19.2971 317.339C17.6256 320.29 17.3929 323.617 18.3268 326.632C18.4981 326.801 18.4872 326.957 18.6585 327.127C25.9861 333.656 37.3943 330.285 46.0922 329.006C48.7761 328.603 51.583 328.406 54.3789 328.366C56.0439 328.128 57.8375 328.018 59.9335 328.164C65.9027 328.582 73.0948 330.501 80.6487 332.484C83.5266 333.236 86.4473 334.03 89.3736 334.746C94.7758 336.068 120.172 345.473 142.533 353.762C158.289 359.584 174.758 365.691 188.34 370.534L194.416 372.689C237.394 388.005 260.34 400.236 270.69 403.476C293.273 410.562 308.277 414.049 319.304 414.82C323.222 415.094 326.662 415.02 329.804 414.611C349.033 412.022 346.269 406.69 353.119 397.14C354.438 395.305 358.288 370.534 434.521 237.507C456.321 199.466 473.749 168.946 475.149 166.605C478.572 160.867 482.792 152.903 485.718 144.455C490.186 131.631 492.997 122.861 489.049 113.185C484.187 101.518 470.467 94.7381 452.603 87.6288Z" fill="#FF6F1E"/>
<g filter="url(#filter0_i_69_53)">
<path d="M267.116 82.8422L245.058 126.134M361.459 113.995L339.634 159.416M158.062 136.339L387.104 220.237M234.441 93.459L375.298 143.769C399.207 155.952 408.714 185.21 396.532 209.119L341.386 317.349C329.203 341.259 299.945 350.765 276.035 338.583L135.179 288.273C111.269 276.09 101.762 246.832 113.945 222.923L169.091 114.693C181.273 90.7831 210.532 81.2765 234.441 93.459Z" stroke="#C154C1" stroke-width="21.8645" stroke-linecap="round" stroke-linejoin="round"/>
<path d="M267.116 82.8422L245.058 126.134M361.459 113.995L339.634 159.416M158.062 136.339L387.104 220.237M234.441 93.459L375.298 143.769C399.207 155.952 408.714 185.21 396.532 209.119L341.386 317.349C329.203 341.259 299.945 350.765 276.035 338.583L135.179 288.273C111.269 276.09 101.762 246.832 113.945 222.923L169.091 114.693C181.273 90.7831 210.532 81.2765 234.441 93.459Z" stroke="black" stroke-opacity="0.2" stroke-width="21.8645" stroke-linecap="round" stroke-linejoin="round"/>
</g>
<g filter="url(#filter1_i_69_53)">
<path d="M195.317 201.935C197.301 198.626 201.421 197.286 204.972 198.794V198.794C209.297 200.629 211 205.864 208.583 209.893L184.21 250.527C182.225 253.836 178.106 255.176 174.554 253.668V253.668C170.23 251.833 168.527 246.598 170.943 242.569L195.317 201.935Z" fill="#F400A1"/>
<path d="M303.012 248.498C304.926 244.987 309.192 243.501 312.874 245.063V245.063C317.101 246.858 318.86 251.907 316.662 255.939L294.585 296.437C292.671 299.949 288.405 301.435 284.723 299.872V299.872C280.496 298.078 278.737 293.029 280.935 288.996L303.012 248.498Z" fill="#F400A1"/>
<path d="M169.149 209.136C169.745 208.185 170.239 206.992 171.325 206.71C173.799 206.068 178.809 208.065 180.963 208.98V208.98C184.687 210.447 186.117 214.968 183.915 218.31L181.63 221.779C179.085 225.642 174.162 227.162 169.882 225.408L165.654 223.675C163.548 222.781 162.769 221.461 163.084 219.636C163.274 218.53 163.88 217.551 164.475 216.6L169.149 209.136Z" fill="#F400A1"/>
<path d="M310.952 271.205C311.896 270.604 313.071 270.49 314.112 270.899L321.542 273.816C322.485 274.186 323.7 276.991 323.304 277.923V277.923L318.729 287.256C317.198 290.137 315.426 290.045 309.037 287.928V287.928C305.629 286.809 303.975 282.956 305.509 279.714L306.767 277.057L309.38 272.717C309.707 272.173 310.156 271.712 310.692 271.371L310.952 271.205Z" fill="#F400A1"/>
<path d="M215.714 200.216C217.674 196.831 221.849 195.438 225.449 196.966V196.966C229.739 198.787 231.463 203.953 229.128 207.986L194.988 266.924C193.028 270.308 188.853 271.702 185.253 270.173V270.173C180.964 268.353 179.239 263.186 181.575 259.154L215.714 200.216Z" fill="#F400A1"/>
<path d="M217.095 237.197C219.704 232.677 225.201 230.71 230.085 232.548L267.256 246.539C273.365 248.838 275.898 256.111 272.538 261.708V261.708C269.96 266.004 264.696 267.867 259.989 266.151L222.676 252.542C216.452 250.272 213.784 242.935 217.095 237.197V237.197Z" fill="#F400A1"/>
<path d="M291.494 232.035C293.432 228.587 297.653 227.148 301.294 228.693V228.693C305.553 230.501 307.295 235.61 305.027 239.643L272.307 297.843C270.369 301.291 266.148 302.73 262.508 301.185V301.185C258.249 299.377 256.507 294.268 258.774 290.235L291.494 232.035Z" fill="#F400A1"/>
</g>
<path d="M314 469L337.365 470.5L344.476 477.5L346 488.5L338.381 496H324.159L314 469Z" fill="#2F2F2F"/>
<defs>
<filter id="filter0_i_69_53" x="97.7043" y="71.9076" width="315.068" height="286.916" filterUnits="userSpaceOnUse" color-interpolation-filters="sRGB">
<feFlood flood-opacity="0" result="BackgroundImageFix"/>
<feBlend mode="normal" in="SourceGraphic" in2="BackgroundImageFix" result="shape"/>
<feColorMatrix in="SourceAlpha" type="matrix" values="0 0 0 0 0 0 0 0 0 0 0 0 0 0 0 0 0 0 127 0" result="hardAlpha"/>
<feOffset dy="12"/>
<feGaussianBlur stdDeviation="2"/>
<feComposite in2="hardAlpha" operator="arithmetic" k2="-1" k3="1"/>
<feColorMatrix type="matrix" values="0 0 0 0 0 0 0 0 0 0 0 0 0 0 0 0 0 0 0.25 0"/>
<feBlend mode="normal" in2="shape" result="effect1_innerShadow_69_53"/>
</filter>
<filter id="filter1_i_69_53" x="163.017" y="196.349" width="160.365" height="110.454" filterUnits="userSpaceOnUse" color-interpolation-filters="sRGB">
<feFlood flood-opacity="0" result="BackgroundImageFix"/>
<feBlend mode="normal" in="SourceGraphic" in2="BackgroundImageFix" result="shape"/>
<feColorMatrix in="SourceAlpha" type="matrix" values="0 0 0 0 0 0 0 0 0 0 0 0 0 0 0 0 0 0 127 0" result="hardAlpha"/>
<feOffset dy="12"/>
<feGaussianBlur stdDeviation="2.5"/>
<feComposite in2="hardAlpha" operator="arithmetic" k2="-1" k3="1"/>
<feColorMatrix type="matrix" values="0 0 0 0 0 0 0 0 0 0 0 0 0 0 0 0 0 0 0.25 0"/>
<feBlend mode="normal" in2="shape" result="effect1_innerShadow_69_53"/>
</filter>
</defs>
</svg>
